<?xml version="1.0" encoding="UTF-8"?><svg xmlns="http://www.w3.org/2000/svg" width="33.22" height="39.88" viewBox="0 0 33.22 39.88"><g id="a"/><g id="b"><g id="c"><g><path d="M6.39,15.32c-.32-.78,.05-1.67,.83-1.99,.08-.03,.17-.06,.26-.08v-.02c0-.84,.68-1.53,1.53-1.53,.4,0,.79,.16,1.08,.45,.07,.07,.12,.14,.18,.21,.2-.12,.42-.2,.65-.23,.12-.51,.49-.92,.98-1.09,0-.8,.64-1.46,1.44-1.51,.22-.81,1.06-1.3,1.87-1.08,.17,.05,.33,.12,.48,.22,.01,0,.02,.02,.04,.03,.08,.06,.15,.12,.21,.19,.02-.01,.04-.02,.07-.03,.34-.16,.72-.19,1.08-.09,.25-.48,.75-.77,1.29-.75,.06,0,.13,0,.19,.02,.33,.06,.63,.22,.85,.47,0,.01,.02,.02,.03,.03h.01c.21-.1,.45-.14,.68-.12,.24,.02,.47,.08,.69,.17,.21,.08,.4,.21,.56,.37,.02,.02,.03,.03,.05,.05,.1-.05,.2-.08,.31-.11,.82-.2,1.64,.3,1.84,1.12,.04,.17,.05,.35,.03,.53,.73,.33,1.08,1.18,.79,1.93,.2,.17,.35,.39,.44,.63,.04,.11,.07,.23,.09,.34,.04,0,.09,0,.13,0,.72,0,1.34,.5,1.49,1.21,.81,.23,1.28,1.08,1.05,1.89v.02s-.02,.05-.03,.07c.1,.15,.18,.31,.24,.48,.07,.23,.1,.47,.07,.71-.01,.12-.04,.23-.07,.34,.87,.37,1.28,1.37,.92,2.25-.25,.6-.83,1.01-1.48,1.05l-1.24,16.01c-.04,.61-.26,1.2-.64,1.68-.35,.45-.88,.72-1.45,.73H8.93c-.58-.01-1.12-.28-1.48-.73-.39-.48-.63-1.06-.67-1.68l-1.24-16.01c-.95-.06-1.67-.87-1.61-1.82,.04-.61,.4-1.16,.95-1.43-.18-.36-.21-.78-.08-1.16,.16-.48,.55-.86,1.04-1,.1-.3,.29-.56,.55-.75Zm11.45-6.03c.21,.27,.33,.6,.33,.95,0,.07,0,.15-.02,.22-.01,.07-.03,.15-.05,.22-.07,.24-.33,.38-.57,.31-.24-.07-.38-.33-.31-.57h0s.02-.06,.02-.09c0-.03,0-.06,0-.09,0-.34-.28-.62-.62-.62-.18,0-.35,.08-.46,.21-.15,.2-.44,.24-.64,.09-.07-.05-.13-.13-.16-.21-.04-.11-.11-.21-.2-.28h-.02c-.28-.21-.66-.14-.86,.14-.07,.1-.11,.23-.11,.35v.05h0c0,.06,0,.13-.02,.19-.07,.24-.33,.38-.57,.3-.06-.02-.12-.03-.18-.03-.34,0-.61,.27-.61,.61h0c0,.07,.01,.14,.03,.21,.08,.24-.04,.5-.28,.58-.04,.01-.08,.02-.12,.02h0s-.03,0-.04,0c-.34,0-.61,.27-.61,.61h0v.04s0,.02,0,.04c.03,.25-.15,.47-.41,.5-.06,0-.12,0-.17-.01-.02,0-.03,0-.06,0-.03,0-.05,0-.08,0-.26,0-.49,.16-.58,.4-.09,.24-.35,.36-.58,.27-.19-.07-.31-.26-.3-.46v-.02c0-.34-.28-.61-.61-.61s-.61,.28-.61,.61c0,.09,.02,.19,.06,.27,.11,.23,.01,.5-.21,.61-.1,.05-.21,.06-.31,.03-.02,0-.04,0-.06,0s-.04,0-.07,0c-.34,0-.62,.28-.61,.63,0,.08,.02,.16,.05,.23,.03,.07,.07,.13,.12,.19,.19,.17,.21,.45,.04,.64-.06,.07-.15,.12-.25,.14-.26,.06-.46,.28-.48,.55-.02,.24-.22,.42-.47,.42-.12,0-.23,.05-.32,.12-.1,.08-.18,.18-.21,.3-.01,.03-.02,.07-.02,.1-.02,.13,0,.27,.07,.39,.05,.09,.12,.17,.22,.2H26.84s.04-.03,.06-.05c.05-.07,.08-.16,.08-.24,.01-.12,0-.24-.04-.35-.04-.13-.11-.25-.22-.33-.2-.15-.25-.43-.1-.64,.03-.04,.06-.07,.1-.1h0c.1-.34-.09-.68-.41-.77-.06-.02-.12-.03-.17-.03-.05,0-.09,0-.13-.02h0c-.2-.06-.34-.26-.32-.47v-.02s0,.01,0-.02c0-.34-.29-.61-.63-.6-.33,0-.59,.27-.6,.6,0,.02,0,.05,0,.07s.02,.05,.02,.08,.02,.07,.02,.1c.06,.24-.09,.49-.33,.55-.23,.06-.46-.07-.54-.29-.03-.08-.05-.16-.06-.24,0-.02,0-.03,0-.05-.01-.07-.02-.15-.02-.22,0-.41,.16-.79,.45-1.08l.02-.02c.05-.14,.05-.3-.01-.44-.05-.15-.16-.27-.29-.35h0s-.03-.02-.05-.02h-.04c-.08-.05-.14-.11-.19-.18h0v-.02h0v-.02h-.02v-.02h0v-.02h0v-.02h-.01c-.04-.1-.04-.2-.01-.29h0v-.02h0v-.02h.01v-.02h0s.04-.08,.07-.11c.02-.02,.04-.05,.05-.08,.01-.02,.02-.04,.03-.07,0-.02,.01-.04,.02-.05,.1-.3-.04-.63-.33-.76-.02,0-.04-.01-.05-.02-.02,0-.04-.01-.06-.02h0s-.06-.01-.09-.01c-.25-.02-.44-.23-.42-.49,0-.07,.03-.14,.06-.2h0v-.03c.13-.32-.02-.67-.34-.8-.24-.09-.5-.03-.68,.16-.06,.07-.13,.12-.21,.14-.24,.08-.5-.06-.57-.29-.06-.18-.19-.32-.36-.38-.14-.06-.28-.09-.43-.11-.07-.01-.14,0-.21,.02-.03,.01-.05,.04-.05,.07,0,.03-.02,.06-.02,.08h0s0,.04,0,.06c-.03,.25-.26,.43-.51,.39-.24-.03-.41-.24-.4-.48,0-.03,0-.06,0-.09,0-.1-.05-.2-.13-.27-.09-.1-.2-.16-.33-.19-.02,0-.04,0-.06,0-.23,0-.43,.14-.5,.36h0Zm-4.28,18.74h2.38v-6.56h-4.58l1.01,17.5h3.57v-6.65h-2.38c-.25,0-.46-.2-.46-.46v-3.37c0-.25,.2-.46,.46-.46h0Zm3.29,0h2.38c.25,0,.46,.2,.46,.46v3.37c0,.25-.2,.46-.46,.46h-2.38v6.65h3.52l.84-17.5h-4.36v6.57h0Zm1.93,.91h-4.76v2.46h4.76v-2.46Zm3.35-7.48l-.84,17.5h2.63c.29,0,.57-.15,.74-.39,.26-.34,.41-.74,.44-1.17l1.23-15.94h-4.2Zm-10.67,17.5l-1.01-17.5h-3.99l1.23,15.94c.03,.42,.19,.82,.45,1.15,.19,.24,.48,.39,.78,.41h2.53ZM15.98,2.74c.36,.79,0,1.71-.78,2.07-.74,.33-1.61,.05-2.01-.66-.03-.06-.06-.13-.09-.19-.86-.05-1.52-.79-1.47-1.65,.05-.86,.79-1.52,1.65-1.47,.09,0,.17,.02,.26,.04,.39-.77,1.32-1.09,2.1-.7,.77,.39,1.09,1.32,.7,2.1-.09,.18-.21,.34-.36,.47Zm-.78,.59c-.01-.15-.08-.3-.19-.41h0c-.18-.18-.18-.46,0-.64,.05-.05,.1-.08,.16-.1,.05-.02,.1-.05,.14-.08h.02c.05-.05,.09-.1,.13-.15,.21-.29,.14-.7-.15-.91s-.7-.14-.91,.15c-.03,.05-.06,.1-.08,.15-.02,.05-.03,.11-.04,.17-.01,.25-.23,.45-.48,.43-.09,0-.17-.03-.25-.09-.29-.21-.7-.15-.91,.15-.21,.29-.15,.7,.15,.91,.08,.06,.16,.09,.26,.11,.09,.02,.17,.02,.26,0,.24-.07,.5,.07,.57,.31,0,.03,.02,.06,.02,.1,.02,.36,.33,.63,.69,.61,.36-.02,.63-.33,.61-.69h0ZM4.02,10.81c.19-.84-.34-1.68-1.19-1.87-.84-.19-1.68,.34-1.87,1.19-.02,.11-.04,.23-.04,.34,0,.09,0,.17,.02,.26-.79,.34-1.16,1.26-.83,2.05,.34,.79,1.26,1.16,2.05,.83l.04-.02c.07-.03,.13-.06,.19-.1,.06,.04,.12,.07,.19,.1,.78,.36,1.71,.02,2.07-.76,.25-.54,.17-1.18-.2-1.64,0-.01-.02-.02-.02-.03-.12-.14-.26-.26-.42-.35Zm-.28,.93l.02,.02c.22,.28,.17,.69-.11,.92-.28,.21-.67,.17-.9-.09-.16-.19-.45-.21-.64-.05-.02,.02-.04,.04-.06,.06-.12,.14-.3,.22-.49,.22-.36,0-.65-.29-.65-.65,0-.36,.29-.65,.65-.65,.25,0,.46-.2,.45-.46,0-.09-.02-.17-.07-.24h0c-.03-.05-.06-.11-.07-.16-.1-.35,.1-.71,.44-.81,.35-.1,.71,.1,.81,.44,.02,.06,.03,.12,.03,.18,0,.06,0,.13-.03,.19-.02,.06-.04,.12-.08,.17-.14,.21-.08,.49,.13,.63,.06,.04,.12,.06,.18,.07,.15,.03,.29,.1,.38,.22h0Zm27.57-1.59c-.43-.75-1.39-1-2.14-.57-.09,.05-.17,.11-.25,.18-.01,.01-.03,.02-.04,.04h0c-.61,.58-.66,1.54-.1,2.17,.01,.01,.02,.03,.04,.04h0c.05,.06,.11,.11,.18,.16-.37,.78-.03,1.71,.75,2.08,.78,.37,1.71,.03,2.08-.75,.01-.03,.02-.05,.04-.08,.03-.07,.05-.13,.07-.2,.85-.15,1.41-.97,1.26-1.82-.15-.85-.97-1.41-1.82-1.26-.02,0-.04,0-.07,.01h0Zm.43,.88c.36,.05,.61,.37,.57,.73-.03,.25-.21,.46-.45,.54-.09,.03-.19,.04-.28,.02-.25-.03-.48,.15-.51,.4h0s0,.07,0,.1c0,.09-.02,.17-.05,.25-.14,.33-.52,.49-.85,.35-.33-.14-.49-.52-.35-.85,.04-.09,.09-.17,.16-.23,.19-.17,.2-.46,.03-.64h0c-.06-.06-.13-.11-.22-.13h0c-.06-.02-.11-.04-.17-.07-.05-.03-.1-.07-.14-.12h-.01c-.23-.28-.21-.68,.05-.92h.01c.27-.25,.68-.22,.92,.05,.08,.09,.13,.2,.15,.32,.04,.25,.28,.42,.52,.38,.07-.01,.13-.04,.18-.07,.13-.08,.28-.12,.43-.1h0Zm-14.23,3.84v-.02c.02-.27,.25-.48,.53-.47h.03c.21,.02,.39,.16,.46,.35-.16,.19-.14,.48,.05,.64,.15,.13,.36,.14,.53,.04,.02,0,.03-.02,.05-.03,.01,0,.03,0,.04-.02,.27-.1,.56,.04,.66,.31,.08,.23,0,.49-.22,.61-.22,.13-.29,.41-.16,.62,.13,.22,.41,.29,.62,.16,.67-.41,.89-1.28,.48-1.96-.19-.32-.5-.55-.87-.64-.11-.03-.22-.04-.33-.04-.07-.19-.17-.36-.31-.51-.25-.27-.58-.43-.94-.46h-.03s-.03,0-.05,0h0c-.76-.01-1.4,.58-1.44,1.34,0,.02,0,.04,0,.06,0,.25,.22,.45,.47,.44,.24,0,.43-.2,.44-.44h0Zm9.63,4.07H5.65c-.44,.01-.79,.38-.78,.82,.01,.43,.36,.77,.78,.78H27.15c.44-.01,.79-.38,.78-.82-.01-.43-.36-.77-.78-.78Zm-15.8-4.4c-.81,.22-1.29,1.06-1.07,1.88,.18,.66,.79,1.13,1.47,1.13,.25,0,.46-.2,.46-.46s-.2-.46-.46-.46c-.34,0-.61-.27-.62-.61s.27-.61,.61-.62h0c.25,0,.46-.2,.46-.46,0-.34,.27-.62,.61-.62,.27,0,.52,.18,.59,.44,.07,.24,.32,.38,.56,.31s.38-.32,.31-.56h0c-.24-.81-1.08-1.28-1.89-1.04-.51,.15-.91,.55-1.05,1.06Zm9.62-2.02c.21-.82-.28-1.65-1.1-1.86-.33-.09-.68-.06-.99,.08h0c-.19,.08-.37,.21-.51,.36-.18,.18-.17,.47,0,.64,.18,.18,.47,.17,.64,0h.01c.06-.08,.13-.13,.2-.16h0c.32-.13,.68,.01,.81,.33,.06,.14,.07,.29,.02,.43-.02,.06-.05,.12-.09,.17-.15,.2-.1,.49,.1,.64,.06,.04,.13,.07,.2,.08,.14,.03,.26,.1,.35,.2l.02,.02c.08,.1,.13,.23,.13,.37,.01,.25,.22,.45,.47,.44,.25-.01,.44-.21,.44-.46,0-.34-.13-.67-.35-.93l-.02-.03c-.1-.12-.23-.22-.36-.3h0Zm-11.34,.7s0,0,0,0h0Z" fill="blue" fill-rule="evenodd"/><path d="M15.08,29.77s.04-.08,.09-.08,.09,.04,.09,.08-.04,.08-.09,.08-.09-.04-.09-.08Zm-.42,.45h-.15c0,.13,.1,.22,.25,.22,.12,0,.25-.07,.25-.21,0-.07-.02-.16-.19-.21l-.08-.03c-.07-.02-.08-.05-.08-.07,0-.04,.04-.07,.09-.07,.06,0,.09,.03,.09,.08h.15c0-.14-.1-.22-.24-.22s-.24,.09-.24,.21c0,.06,.03,.16,.18,.2l.08,.02c.07,.02,.09,.05,.08,.08,0,.05-.04,.08-.1,.08-.07,0-.1-.04-.1-.09Zm.58,.21v-.48h-.14v.48h.14Zm.34-.36c.06,0,.11,.04,.11,.11s-.06,.12-.11,.12-.11-.05-.11-.12c0-.07,.05-.11,.11-.11Zm-.01,.47s-.1-.03-.12-.08l-.06,.03h0l-.06,.03c.04,.09,.13,.15,.23,.15,.17,0,.27-.1,.27-.31v-.41h-.14v.06s-.08-.07-.14-.07c-.12,0-.24,.1-.24,.25s.11,.25,.24,.25c.06,0,.12-.03,.14-.07,0,.1-.02,.17-.13,.17Zm.5-.37v.25h-.14v-.48h.14v.07s.08-.08,.14-.08c.11,0,.17,.07,.17,.2v.29h-.14v-.26c0-.06-.03-.1-.08-.1s-.09,.02-.09,.1Zm.54,.25v-.48h-.14v.48h.14Zm-.16-.66s.04-.08,.09-.08,.09,.04,.09,.08-.04,.08-.09,.08-.09-.04-.09-.08Zm.55,.05v-.14h-.02c-.14,0-.21,.08-.21,.23v.03h-.09v.11h.09v.37h.14v-.37h.1v-.11h-.1v-.03c0-.06,.02-.09,.07-.09h.02Zm.21,.12v.48h-.14v-.48h.14Zm-.07-.26s-.09,.04-.09,.08,.04,.08,.09,.08,.09-.04,.09-.08-.04-.08-.09-.08Zm.14,.5c0-.15,.12-.25,.26-.25,.08,0,.16,.04,.21,.1l-.11,.08s-.05-.05-.09-.05c-.06,0-.12,.04-.12,.11s.06,.12,.12,.12c.04,0,.07-.02,.09-.05l.11,.08c-.04,.06-.12,.1-.21,.1-.14,0-.26-.1-.26-.25Zm.86,.19v.05h.14v-.48h-.14v.05c-.04-.05-.11-.06-.14-.06-.12,0-.24,.1-.24,.25s.12,.25,.24,.25c.04,0,.11-.02,.14-.06Zm-.11-.07c-.06,0-.12-.05-.12-.11s.06-.11,.12-.11,.11,.04,.11,.11-.06,.11-.11,.11Z" fill="blue" fill-rule="evenodd"/></g></g></g></svg>