<?xml version="1.0" encoding="UTF-8"?><svg xmlns="http://www.w3.org/2000/svg" width="78.63" height="42.1" viewBox="0 0 78.63 42.1"><g id="a"/><g id="b"><g id="c"><g><g><path d="M6.74,16.14c-.34-.82,.05-1.76,.87-2.1,.09-.04,.18-.06,.27-.08v-.02c0-.89,.72-1.61,1.61-1.61,.43,0,.84,.17,1.14,.47,.07,.07,.13,.15,.19,.23,.21-.13,.44-.21,.68-.24,.13-.53,.52-.97,1.04-1.15,.01-.84,.67-1.54,1.51-1.59,.23-.86,1.12-1.37,1.97-1.14,.18,.05,.35,.13,.5,.23,.01,0,.02,.02,.04,.03,.08,.06,.15,.12,.22,.2,.02-.01,.05-.02,.07-.04,.36-.17,.76-.2,1.14-.09,.27-.5,.79-.81,1.36-.79,.07,0,.13,0,.2,.02,.35,.06,.66,.24,.9,.5,.01,.01,.02,.02,.03,.03h.01c.22-.11,.47-.15,.72-.13,.25,.02,.49,.08,.73,.18,.22,.09,.42,.22,.59,.4,.02,.02,.03,.04,.05,.06,.1-.05,.21-.09,.32-.12,.86-.21,1.73,.32,1.94,1.18,.04,.18,.06,.37,.04,.55,.77,.35,1.14,1.24,.83,2.03,.21,.18,.37,.41,.47,.67,.04,.12,.08,.24,.09,.36,.05,0,.09,0,.14,0,.76,0,1.41,.53,1.57,1.27,.85,.25,1.35,1.14,1.1,1.99v.02s-.02,.05-.03,.08c.11,.15,.19,.33,.25,.51,.07,.24,.1,.5,.08,.75-.01,.12-.04,.24-.08,.36,.92,.39,1.35,1.45,.96,2.37-.27,.63-.87,1.06-1.56,1.1l-1.3,16.87c-.04,.64-.28,1.26-.68,1.77-.37,.48-.93,.76-1.53,.77H9.41c-.61-.01-1.18-.29-1.56-.77-.41-.5-.66-1.12-.71-1.77l-1.3-16.87c-1-.06-1.76-.92-1.7-1.91,.04-.65,.42-1.22,1-1.51-.19-.38-.22-.82-.09-1.22,.17-.51,.58-.9,1.09-1.05,.11-.32,.31-.59,.58-.79Zm12.07-6.35c.23,.28,.35,.64,.35,1,0,.08,0,.16-.02,.23-.01,.08-.03,.15-.05,.23-.08,.25-.34,.4-.6,.32-.25-.08-.4-.34-.32-.6h0s.02-.06,.02-.09c0-.03,0-.06,0-.1,0-.36-.29-.65-.65-.65-.19,0-.37,.08-.49,.22-.16,.21-.46,.26-.67,.1-.08-.06-.13-.13-.16-.22-.04-.12-.12-.22-.21-.29l-.02-.02c-.29-.2-.7-.13-.9,.16-.08,.11-.12,.24-.12,.37v.05h0c0,.07,0,.13-.02,.2-.08,.25-.35,.4-.6,.32-.06-.02-.13-.03-.19-.03-.36,0-.65,.29-.65,.65h0c0,.07,.01,.15,.04,.22,.09,.25-.04,.52-.29,.61-.04,.01-.08,.02-.13,.03h0s-.03,0-.05,0c-.36,0-.65,.29-.65,.65h0v.04s0,.02,0,.04c.03,.26-.16,.5-.43,.53-.06,0-.12,0-.18-.02-.02,0-.04,0-.06,0-.03,0-.05,0-.08,0-.27,0-.51,.17-.61,.42-.09,.25-.37,.38-.62,.29-.2-.07-.33-.27-.31-.49v-.02c0-.36-.29-.65-.65-.65s-.65,.29-.65,.65c0,.1,.02,.2,.06,.28,.12,.24,.02,.53-.22,.64-.1,.05-.22,.06-.33,.03-.02,0-.04,0-.06,0s-.04,0-.07,0c-.36,0-.65,.3-.65,.66,0,.08,.02,.17,.05,.24,.03,.07,.08,.14,.13,.2,.2,.18,.22,.48,.04,.68-.07,.08-.16,.13-.26,.15-.28,.06-.48,.29-.5,.58-.02,.25-.24,.45-.49,.44-.12,0-.24,.05-.34,.13-.11,.08-.18,.19-.23,.32-.01,.04-.02,.07-.03,.11-.02,.14,0,.28,.07,.41,.05,.1,.13,.17,.23,.21H28.28s.04-.03,.06-.05c.05-.08,.08-.16,.09-.25,.01-.12,0-.25-.04-.37-.04-.14-.12-.26-.23-.35-.21-.16-.26-.46-.11-.67,.03-.04,.07-.08,.11-.11h0c.1-.35-.09-.71-.44-.82-.06-.02-.12-.03-.18-.03-.05,0-.09,0-.14-.02h0c-.21-.07-.35-.27-.34-.49v-.03s0,.01,0-.02c0-.36-.31-.64-.67-.63-.34,0-.62,.29-.63,.63,0,.03,0,.05,0,.07s.02,.05,.02,.09,.02,.07,.02,.1c.07,.26-.09,.52-.35,.58-.24,.06-.49-.07-.57-.31-.03-.08-.05-.17-.07-.25,0-.02,0-.03,0-.05-.01-.08-.02-.16-.02-.24,0-.43,.17-.84,.47-1.14l.02-.02c.05-.15,.05-.32-.01-.47-.06-.16-.17-.28-.31-.36h0s-.04-.02-.05-.03h-.03v-.02h0c-.08-.04-.15-.1-.2-.17h0v-.02h0v-.02h-.02v-.02h0v-.02h0v-.02h-.01c-.04-.1-.04-.21-.01-.31h0v-.02h0v-.02h.01v-.02h0s.05-.08,.08-.12c.02-.03,.04-.05,.06-.08,.01-.02,.03-.05,.04-.07,0-.02,.01-.04,.02-.06,.1-.32-.05-.66-.35-.8-.02,0-.04-.01-.06-.02-.02,0-.04-.01-.06-.02h0s-.06-.01-.09-.01c-.26-.02-.46-.25-.45-.51,0-.07,.03-.15,.06-.21h0v-.03c.14-.33-.02-.71-.36-.84-.25-.1-.53-.03-.71,.16-.06,.07-.14,.12-.22,.15-.25,.08-.52-.06-.6-.31-.06-.18-.2-.33-.38-.4-.15-.06-.3-.1-.46-.11-.08-.01-.15,0-.22,.02-.03,.01-.05,.04-.06,.07-.01,.03-.02,.06-.02,.09h0s0,.04,0,.06c-.03,.26-.27,.45-.54,.42-.25-.03-.43-.25-.42-.5,0-.03,0-.06,0-.09,0-.11-.06-.21-.13-.29-.09-.1-.21-.17-.35-.2-.02,0-.04,0-.06,0-.24,0-.46,.15-.53,.38h0Zm-4.51,19.75h2.51v-6.92h-4.82l1.06,18.44h3.76v-7h-2.51c-.27,0-.48-.22-.48-.48v-3.55c0-.27,.22-.48,.48-.48h0Zm3.47,0h2.51c.27,0,.48,.22,.48,.48v3.56c0,.27-.22,.48-.48,.48h-2.51v7h3.71l.88-18.44h-4.59v6.92h0Zm2.03,.96h-5.02v2.59h5.02v-2.59Zm3.53-7.88l-.88,18.44h2.77c.31-.01,.6-.16,.78-.41,.27-.35,.43-.78,.46-1.23l1.3-16.8h-4.43Zm-11.24,18.44l-1.06-18.44H6.81l1.3,16.8c.03,.44,.19,.87,.48,1.21,.2,.26,.5,.41,.83,.43h2.67ZM16.83,2.88c.37,.83,0,1.8-.82,2.18-.78,.35-1.7,.05-2.12-.7-.04-.07-.07-.13-.1-.2-.91-.05-1.6-.83-1.55-1.74,.05-.91,.83-1.6,1.74-1.55,.09,0,.18,.02,.27,.04,.41-.81,1.4-1.14,2.21-.74,.81,.41,1.14,1.4,.74,2.21-.09,.19-.22,.36-.38,.5Zm-.82,.63c-.01-.16-.08-.32-.2-.43h0c-.19-.19-.19-.49,0-.68,.05-.05,.11-.09,.17-.11,.05-.02,.1-.05,.15-.08l.02-.02c.05-.04,.1-.09,.14-.14,.22-.31,.15-.74-.16-.96s-.74-.15-.96,.16c-.04,.05-.06,.1-.09,.16-.02,.06-.03,.12-.04,.18-.01,.26-.24,.47-.5,.46-.09,0-.18-.04-.26-.09-.31-.22-.74-.15-.96,.15-.22,.31-.15,.74,.15,.96,.08,.06,.17,.1,.27,.12,.09,.02,.18,.02,.27,0,.25-.08,.52,.07,.6,.32,0,.03,.02,.07,.02,.1,.03,.38,.35,.66,.73,.64,.38-.03,.66-.35,.64-.73h0ZM4.24,11.4c.2-.89-.36-1.77-1.25-1.97-.89-.2-1.77,.36-1.97,1.25-.03,.12-.04,.24-.04,.36,0,.09,0,.18,.02,.27-.84,.36-1.23,1.32-.87,2.16,.36,.84,1.32,1.23,2.16,.87l.04-.02c.07-.03,.14-.07,.2-.11,.06,.04,.13,.08,.2,.11,.82,.38,1.8,.02,2.19-.8,.26-.57,.18-1.24-.21-1.73,0-.01-.02-.02-.03-.03-.12-.15-.27-.27-.44-.36Zm-.29,.98l.02,.02c.23,.3,.18,.73-.12,.97-.29,.23-.71,.18-.95-.1-.17-.2-.47-.23-.68-.05-.02,.02-.04,.04-.06,.06-.13,.15-.32,.24-.52,.23-.38,0-.69-.31-.69-.69,0-.38,.31-.69,.69-.69,.26,0,.48-.21,.48-.48,0-.09-.03-.18-.07-.26h0c-.03-.05-.06-.11-.08-.17-.11-.36,.1-.74,.47-.85,.36-.11,.74,.1,.85,.47,.02,.06,.03,.13,.03,.19,0,.07,0,.13-.03,.2-.02,.06-.05,.12-.08,.18-.14,.22-.08,.52,.14,.66,.06,.04,.12,.06,.19,.07,.16,.03,.3,.11,.4,.23h0Zm29.05-1.68c-.46-.79-1.47-1.05-2.25-.6-.09,.05-.18,.12-.26,.19-.01,.01-.03,.02-.04,.04h0c-.65,.61-.69,1.62-.11,2.29,.01,.01,.02,.03,.04,.04h0c.06,.06,.12,.12,.19,.17-.39,.82-.04,1.81,.79,2.19,.82,.39,1.81,.04,2.19-.79,.01-.03,.03-.06,.04-.09,.03-.07,.05-.14,.07-.21,.9-.16,1.49-1.02,1.33-1.91-.16-.9-1.02-1.49-1.91-1.33-.02,0-.05,0-.07,.01h0Zm.45,.92c.38,.05,.64,.39,.6,.77-.03,.26-.22,.48-.47,.57-.1,.03-.2,.04-.3,.03-.26-.03-.5,.16-.54,.42h0s0,.07,0,.11c0,.09-.02,.18-.05,.26-.15,.35-.55,.52-.9,.37-.35-.15-.52-.55-.37-.9,.04-.09,.1-.18,.17-.24,.2-.18,.21-.48,.03-.68h0c-.06-.07-.14-.12-.23-.14h0c-.06-.02-.12-.04-.18-.07-.06-.03-.11-.08-.15-.12h-.01c-.24-.3-.22-.72,.06-.97h.01c.28-.26,.72-.23,.97,.05,.08,.1,.14,.21,.16,.34,.04,.26,.29,.44,.55,.4,.07-.01,.14-.04,.19-.08,.13-.09,.3-.12,.45-.1h0Zm-15,4.05v-.02c.02-.29,.27-.5,.55-.5h.03c.22,.02,.41,.17,.48,.37-.17,.2-.15,.5,.05,.68,.16,.13,.38,.15,.56,.05,.02-.01,.04-.02,.05-.03,.01,0,.03-.01,.04-.02,.28-.1,.59,.05,.69,.33,.09,.24,0,.51-.23,.65-.23,.14-.3,.43-.17,.66,.14,.23,.43,.3,.66,.17,.71-.43,.94-1.35,.51-2.06-.2-.34-.53-.58-.91-.68-.11-.03-.23-.04-.35-.05-.07-.2-.18-.38-.33-.54-.26-.28-.61-.45-1-.48h-.03s-.04,0-.05,0h0c-.8-.01-1.48,.61-1.52,1.41,0,.02,0,.04,0,.06,0,.27,.23,.47,.5,.47,.25,0,.46-.21,.47-.47h0Zm10.15,4.29H5.96c-.47,.01-.84,.4-.83,.87,.01,.45,.37,.82,.83,.83H28.61c.47-.01,.84-.4,.83-.87-.01-.45-.37-.82-.83-.83ZM11.96,15.33c-.86,.23-1.36,1.12-1.13,1.98,.19,.7,.83,1.19,1.55,1.19,.27,0,.48-.22,.48-.48s-.22-.48-.48-.48c-.36,0-.65-.29-.65-.65s.29-.65,.65-.65h0c.27,0,.48-.22,.48-.48,0-.36,.29-.65,.65-.65,.29,0,.54,.19,.62,.47,.07,.25,.34,.4,.59,.33s.4-.34,.33-.59h0c-.25-.85-1.14-1.34-2-1.1-.54,.16-.95,.58-1.1,1.12Zm10.13-2.13c.22-.86-.3-1.74-1.16-1.96-.35-.09-.72-.06-1.05,.08h0c-.2,.09-.38,.22-.54,.38-.18,.19-.18,.49,0,.68,.19,.18,.49,.18,.68,0v-.02c.07-.06,.15-.12,.23-.15h0c.33-.14,.72,.01,.86,.35,.06,.14,.07,.3,.02,.45-.02,.06-.05,.12-.09,.18-.16,.22-.11,.52,.11,.67,.06,.05,.14,.08,.22,.09,.14,.03,.27,.1,.37,.21l.02,.02c.09,.11,.14,.25,.14,.39,.01,.26,.23,.47,.5,.46,.26-.01,.46-.23,.46-.48,0-.36-.14-.7-.37-.98,0-.01-.02-.02-.03-.03-.11-.13-.24-.23-.38-.32h0Zm-11.95,.74s0,0,0,0h0Z" fill="blue" fill-rule="evenodd"/><path d="M15.9,31.37s.04-.09,.09-.09,.09,.04,.09,.09-.04,.09-.09,.09-.09-.04-.09-.09Zm-.45,.48h-.16c0,.13,.11,.23,.27,.23,.13,0,.26-.07,.27-.22,0-.07-.02-.17-.2-.23l-.09-.03c-.07-.02-.08-.06-.08-.08,0-.04,.04-.07,.1-.07,.06,0,.1,.03,.1,.08h.16c0-.14-.11-.23-.25-.23s-.25,.09-.25,.22c0,.07,.03,.16,.19,.22l.09,.02c.07,.02,.09,.05,.09,.08,0,.05-.04,.08-.11,.08-.07,0-.11-.04-.11-.09Zm.61,.22v-.51h-.15v.51h.15Zm.36-.37c.06,0,.12,.04,.12,.12s-.06,.12-.12,.12-.12-.05-.12-.12c0-.07,.06-.12,.12-.12Zm-.01,.49c-.05,0-.11-.03-.13-.08l-.06,.03h0l-.06,.03c.04,.09,.14,.16,.25,.16,.18,0,.28-.11,.28-.32v-.44h-.14v.06s-.09-.07-.15-.07c-.13,0-.25,.1-.25,.27s.12,.26,.25,.26c.06,0,.13-.03,.15-.07,0,.1-.02,.18-.14,.18Zm.53-.39v.27h-.15v-.51h.15v.07c.03-.05,.09-.08,.14-.08,.11,0,.18,.07,.18,.22v.3h-.15v-.27c0-.07-.04-.1-.09-.1s-.09,.03-.09,.1Zm.57,.27v-.51h-.15v.51h.15Zm-.17-.7s.04-.09,.09-.09,.09,.04,.09,.09-.04,.09-.09,.09-.09-.04-.09-.09Zm.58,.06v-.14h-.02c-.14,0-.23,.09-.23,.24v.03h-.09v.12h.09v.39h.15v-.39h.1v-.12h-.1v-.03c0-.06,.02-.1,.08-.1h.02Zm.22,.13v.51h-.15v-.51h.15Zm-.07-.28c-.05,0-.09,.04-.09,.09s.04,.09,.09,.09,.09-.04,.09-.09-.04-.09-.09-.09Zm.15,.53c0-.16,.13-.26,.27-.26,.09,0,.17,.04,.22,.11l-.12,.09s-.06-.05-.1-.05c-.06,0-.12,.05-.12,.12s.06,.12,.12,.12c.04,0,.08-.02,.1-.05l.12,.09c-.05,.07-.13,.11-.22,.11-.14,0-.27-.11-.27-.27Zm.91,.2v.06h.15v-.51h-.15v.06c-.04-.06-.11-.07-.15-.07-.13,0-.25,.1-.25,.26s.13,.26,.25,.26c.04,0,.11-.02,.15-.07Zm-.12-.08c-.06,0-.13-.05-.13-.12s.06-.12,.13-.12,.12,.04,.12,.12-.06,.12-.12,.12Z" fill="blue" fill-rule="evenodd"/></g><g><path d="M34.41,20.16v-1.14h3.55v1.14h-3.55Zm2.7,3.94c-.6,0-1.07-.15-1.41-.46-.34-.31-.5-.77-.5-1.38v-4.49h1.48v4.47c0,.22,.06,.38,.17,.5,.11,.12,.27,.18,.47,.18,.23,0,.43-.06,.6-.19l.4,1.05c-.15,.11-.33,.19-.55,.24-.21,.05-.43,.08-.66,.08Z" fill="blue"/><path d="M42.27,18.83c.41,0,.77,.08,1.09,.24,.32,.16,.57,.41,.76,.74s.28,.76,.28,1.28v2.93h-1.48v-2.7c0-.41-.09-.72-.27-.91-.18-.2-.44-.29-.77-.29-.23,0-.45,.05-.63,.15-.19,.1-.33,.25-.44,.45-.1,.2-.16,.46-.16,.78v2.53h-1.48v-7.06h1.48v3.36l-.33-.43c.18-.34,.45-.61,.79-.79,.34-.18,.73-.28,1.17-.28Z" fill="blue"/><path d="M48.32,24.1c-.58,0-1.1-.11-1.54-.34-.44-.23-.78-.54-1.02-.94-.24-.4-.36-.85-.36-1.36s.12-.97,.36-1.37c.24-.4,.56-.71,.98-.93,.41-.23,.88-.34,1.4-.34s.95,.11,1.36,.32c.4,.21,.72,.52,.96,.91s.35,.87,.35,1.42c0,.06,0,.12,0,.2,0,.07-.01,.14-.02,.2h-4.16v-.87h3.38l-.57,.26c0-.27-.05-.5-.16-.69-.11-.2-.26-.35-.45-.46-.19-.11-.41-.17-.67-.17s-.48,.06-.67,.17c-.19,.11-.34,.27-.45,.47s-.16,.44-.16,.71v.23c0,.28,.06,.52,.19,.74,.12,.21,.3,.37,.52,.49,.23,.11,.49,.17,.79,.17,.27,0,.51-.04,.72-.12s.39-.21,.57-.37l.79,.86c-.23,.27-.53,.47-.88,.61-.36,.14-.76,.21-1.23,.21Z" fill="blue"/><path d="M34.41,29.16v-1.14h3.55v1.14h-3.55Zm.79,3.86v-5.23c0-.58,.17-1.04,.51-1.38,.34-.35,.83-.52,1.47-.52,.22,0,.42,.02,.62,.07,.2,.04,.37,.11,.51,.21l-.39,1.08c-.08-.06-.17-.1-.28-.13s-.21-.05-.32-.05c-.22,0-.38,.06-.5,.19-.12,.12-.18,.31-.18,.56v.48l.04,.64v4.11h-1.48Z" fill="blue"/><path d="M40.19,33.1c-.4,0-.74-.07-1.03-.21-.29-.14-.5-.32-.66-.56-.15-.23-.23-.5-.23-.79s.07-.57,.22-.8,.39-.41,.71-.54c.32-.13,.75-.2,1.27-.2h1.36v.87h-1.2c-.35,0-.59,.06-.72,.17-.13,.11-.19,.26-.19,.43,0,.19,.07,.34,.22,.45,.15,.11,.35,.17,.61,.17s.47-.06,.67-.18c.2-.12,.34-.29,.43-.52l.23,.69c-.11,.33-.3,.58-.59,.75-.29,.17-.65,.26-1.1,.26Zm1.56-.08v-1l-.1-.22v-1.79c0-.32-.1-.56-.29-.74-.19-.18-.49-.27-.89-.27-.27,0-.54,.04-.8,.13-.26,.09-.49,.2-.67,.35l-.53-1.04c.28-.2,.62-.35,1.01-.46,.39-.11,.79-.16,1.2-.16,.78,0,1.39,.18,1.82,.55,.43,.37,.65,.94,.65,1.72v2.92h-1.39Z" fill="blue"/><path d="M45.77,33.03l-2.15-5.12h1.53l1.79,4.41h-.76l1.86-4.41h1.43l-2.16,5.12h-1.53Z" fill="blue"/><path d="M52.37,33.1c-.54,0-1.03-.11-1.45-.34s-.75-.54-1-.94-.37-.85-.37-1.36,.12-.97,.37-1.37,.58-.71,1-.93,.91-.34,1.45-.34,1.02,.11,1.45,.34c.42,.23,.76,.53,1,.93,.24,.39,.36,.85,.36,1.37s-.12,.96-.36,1.36-.57,.71-1,.94c-.43,.23-.91,.34-1.45,.34Zm0-1.22c.25,0,.47-.06,.67-.17,.2-.11,.35-.28,.47-.49,.11-.21,.17-.46,.17-.76s-.06-.55-.17-.76c-.11-.21-.27-.37-.47-.49-.2-.11-.42-.17-.67-.17s-.47,.06-.67,.17c-.2,.11-.35,.28-.47,.49-.12,.21-.18,.46-.18,.76s.06,.54,.18,.76c.12,.21,.27,.38,.47,.49,.2,.11,.42,.17,.67,.17Z" fill="blue"/><path d="M58.33,33.1c-.42,0-.8-.08-1.14-.25s-.59-.42-.78-.76c-.18-.34-.28-.77-.28-1.3v-2.89h1.49v2.67c0,.43,.09,.74,.27,.94,.18,.2,.44,.3,.77,.3,.23,0,.43-.05,.61-.15,.18-.1,.32-.25,.42-.46,.1-.21,.15-.46,.15-.78v-2.53h1.49v5.12h-1.41v-1.41l.26,.41c-.17,.36-.42,.62-.76,.8s-.7,.27-1.09,.27Z" fill="blue"/><path d="M62.7,33.03v-5.12h1.42v1.45l-.2-.42c.15-.36,.4-.64,.73-.82,.34-.19,.75-.28,1.23-.28v1.37c-.06,0-.12-.01-.17-.01-.05,0-.1,0-.16,0-.41,0-.74,.12-.99,.35-.25,.23-.38,.59-.38,1.08v2.42h-1.48Z" fill="blue"/><path d="M67.51,27.19c-.27,0-.5-.08-.67-.24-.17-.16-.26-.36-.26-.59s.08-.43,.26-.59c.17-.16,.39-.24,.67-.24s.5,.07,.67,.22,.26,.34,.26,.58c0,.25-.08,.45-.25,.61s-.39,.24-.67,.24Zm-.74,5.83v-5.12h1.48v5.12h-1.48Z" fill="blue"/><path d="M69.02,29.16v-1.14h3.55v1.14h-3.55Zm2.7,3.94c-.6,0-1.07-.15-1.41-.46-.34-.31-.5-.77-.5-1.38v-4.49h1.48v4.47c0,.22,.06,.38,.17,.5,.11,.12,.27,.18,.47,.18,.23,0,.43-.06,.6-.19l.4,1.05c-.15,.11-.33,.19-.55,.24s-.43,.08-.66,.08Z" fill="blue"/><path d="M76.15,33.1c-.58,0-1.1-.11-1.54-.34-.44-.23-.78-.54-1.02-.94s-.36-.85-.36-1.36,.12-.97,.36-1.37c.24-.4,.56-.71,.98-.93s.88-.34,1.4-.34,.95,.11,1.36,.32c.4,.21,.72,.52,.96,.91,.23,.4,.35,.87,.35,1.42,0,.06,0,.12,0,.2,0,.07-.01,.14-.02,.2h-4.16v-.87h3.38l-.57,.26c0-.27-.05-.5-.16-.7-.11-.2-.26-.35-.45-.46s-.41-.17-.67-.17-.48,.06-.67,.17c-.19,.11-.34,.27-.45,.47-.11,.2-.16,.44-.16,.71v.23c0,.28,.06,.53,.19,.74,.12,.21,.3,.38,.52,.49,.22,.11,.49,.17,.79,.17,.27,0,.51-.04,.72-.12,.21-.08,.4-.21,.57-.37l.79,.86c-.23,.27-.53,.47-.88,.61s-.76,.21-1.23,.21Z" fill="blue"/><path d="M41.58,36.83c.41,0,.77,.08,1.08,.24,.31,.16,.56,.41,.74,.74s.27,.76,.27,1.28v2.93h-1.48v-2.7c0-.41-.09-.72-.26-.91-.17-.2-.41-.29-.72-.29-.22,0-.41,.05-.58,.15-.17,.1-.3,.25-.4,.44s-.14,.45-.14,.75v2.57h-1.48v-2.7c0-.41-.08-.72-.25-.91-.17-.2-.41-.29-.72-.29-.22,0-.41,.05-.58,.15-.17,.1-.3,.25-.4,.44s-.14,.45-.14,.75v2.57h-1.48v-5.12h1.42v1.4l-.27-.41c.18-.35,.43-.61,.76-.79s.7-.27,1.12-.27c.47,0,.88,.12,1.23,.36,.35,.24,.59,.6,.7,1.09l-.52-.14c.17-.4,.45-.72,.82-.95,.38-.24,.81-.35,1.3-.35Z" fill="blue"/><path d="M47.48,42.1c-.55,0-1.03-.11-1.45-.34-.42-.23-.76-.54-1-.94s-.37-.85-.37-1.36,.12-.97,.37-1.37,.58-.71,1-.93c.42-.23,.91-.34,1.45-.34s1.02,.11,1.45,.34c.42,.23,.76,.53,1,.93,.24,.39,.36,.85,.36,1.37s-.12,.96-.36,1.36c-.24,.4-.57,.71-1,.94-.43,.23-.91,.34-1.45,.34Zm0-1.22c.25,0,.47-.06,.67-.17s.35-.28,.47-.49c.11-.21,.17-.46,.17-.76s-.06-.55-.17-.76c-.12-.21-.27-.37-.47-.49s-.42-.17-.67-.17-.47,.06-.67,.17c-.2,.11-.35,.28-.47,.49-.12,.21-.18,.46-.18,.76s.06,.54,.18,.76c.12,.21,.27,.38,.47,.49,.2,.11,.42,.17,.67,.17Z" fill="blue"/><path d="M52.52,42.03l-2.15-5.12h1.53l1.79,4.41h-.76l1.86-4.41h1.43l-2.16,5.12h-1.53Z" fill="blue"/><path d="M57.57,36.19c-.27,0-.5-.08-.67-.24-.17-.16-.26-.35-.26-.59s.08-.43,.26-.59c.17-.16,.39-.24,.67-.24s.5,.08,.67,.22c.17,.15,.26,.34,.26,.58,0,.25-.08,.45-.25,.61-.17,.16-.39,.24-.67,.24Zm-.74,5.83v-5.12h1.48v5.12h-1.48Z" fill="blue"/><path d="M62.23,42.1c-.58,0-1.1-.11-1.54-.34-.44-.23-.78-.54-1.02-.94s-.36-.85-.36-1.36,.12-.97,.36-1.37c.24-.4,.56-.71,.98-.93s.88-.34,1.4-.34,.95,.11,1.36,.32c.4,.21,.72,.52,.96,.91,.23,.4,.35,.87,.35,1.42,0,.06,0,.12,0,.2,0,.07-.01,.14-.02,.2h-4.16v-.87h3.38l-.57,.26c0-.27-.05-.5-.16-.7-.11-.2-.26-.35-.45-.46-.19-.11-.41-.17-.67-.17s-.48,.06-.67,.17c-.19,.11-.34,.27-.45,.47-.11,.2-.16,.44-.16,.71v.23c0,.28,.06,.53,.19,.74,.12,.21,.3,.38,.52,.49,.22,.11,.49,.17,.79,.17,.27,0,.51-.04,.72-.12,.21-.08,.4-.21,.57-.37l.79,.86c-.23,.27-.53,.47-.88,.61s-.76,.21-1.23,.21Z" fill="blue"/></g></g></g></g></svg>